<mxfile host="app.diagrams.net" modified="2022-10-26T14:58:16.579Z" agent="5.0 (Windows NT 10.0; Win64; x64) AppleWebKit/537.36 (KHTML, like Gecko) Chrome/105.0.0.0 Safari/537.36" etag="MfhnNjFp7tnLkdJDDuSF" version="20.3.1" type="github">
  <diagram id="gOJOzRetbQcgXtkEl5cl" name="Trang-1">
    <mxGraphModel dx="994" dy="572" grid="1" gridSize="10" guides="1" tooltips="1" connect="1" arrows="1" fold="1" page="1" pageScale="1" pageWidth="827" pageHeight="1169" math="0" shadow="0">
      <root>
        <mxCell id="0" />
        <mxCell id="1" parent="0" />
        <mxCell id="0TAu2RY84iv-qnMOKPin-4" value="" style="rounded=0;orthogonalLoop=1;jettySize=auto;html=1;" edge="1" parent="1" source="0TAu2RY84iv-qnMOKPin-1" target="0TAu2RY84iv-qnMOKPin-3">
          <mxGeometry relative="1" as="geometry" />
        </mxCell>
        <mxCell id="0TAu2RY84iv-qnMOKPin-6" value="" style="edgeStyle=none;rounded=0;orthogonalLoop=1;jettySize=auto;html=1;" edge="1" parent="1" source="0TAu2RY84iv-qnMOKPin-1" target="0TAu2RY84iv-qnMOKPin-5">
          <mxGeometry relative="1" as="geometry" />
        </mxCell>
        <mxCell id="0TAu2RY84iv-qnMOKPin-1" value="User&lt;br&gt;" style="shape=umlActor;verticalLabelPosition=bottom;verticalAlign=top;html=1;outlineConnect=0;" vertex="1" parent="1">
          <mxGeometry x="100" y="410" width="30" height="60" as="geometry" />
        </mxCell>
        <mxCell id="0TAu2RY84iv-qnMOKPin-2" value="Chat" style="swimlane;verticalAlign=bottom;" vertex="1" parent="1">
          <mxGeometry x="160" y="270" width="590" height="330" as="geometry">
            <mxRectangle x="160" y="270" width="70" height="30" as="alternateBounds" />
          </mxGeometry>
        </mxCell>
        <mxCell id="0TAu2RY84iv-qnMOKPin-29" value="" style="edgeStyle=none;rounded=0;orthogonalLoop=1;jettySize=auto;html=1;" edge="1" parent="0TAu2RY84iv-qnMOKPin-2" source="0TAu2RY84iv-qnMOKPin-3" target="0TAu2RY84iv-qnMOKPin-28">
          <mxGeometry relative="1" as="geometry" />
        </mxCell>
        <mxCell id="0TAu2RY84iv-qnMOKPin-3" value="Login" style="ellipse;whiteSpace=wrap;html=1;verticalAlign=middle;" vertex="1" parent="0TAu2RY84iv-qnMOKPin-2">
          <mxGeometry x="75" y="140" width="120" height="60" as="geometry" />
        </mxCell>
        <mxCell id="0TAu2RY84iv-qnMOKPin-25" style="edgeStyle=none;rounded=0;orthogonalLoop=1;jettySize=auto;html=1;entryX=0.5;entryY=0;entryDx=0;entryDy=0;" edge="1" parent="0TAu2RY84iv-qnMOKPin-2" source="0TAu2RY84iv-qnMOKPin-5" target="0TAu2RY84iv-qnMOKPin-3">
          <mxGeometry relative="1" as="geometry" />
        </mxCell>
        <mxCell id="0TAu2RY84iv-qnMOKPin-5" value="Register" style="ellipse;whiteSpace=wrap;html=1;verticalAlign=middle;" vertex="1" parent="0TAu2RY84iv-qnMOKPin-2">
          <mxGeometry x="75" y="40" width="120" height="60" as="geometry" />
        </mxCell>
        <mxCell id="0TAu2RY84iv-qnMOKPin-31" value="" style="edgeStyle=none;rounded=0;orthogonalLoop=1;jettySize=auto;html=1;" edge="1" parent="0TAu2RY84iv-qnMOKPin-2" source="0TAu2RY84iv-qnMOKPin-28" target="0TAu2RY84iv-qnMOKPin-30">
          <mxGeometry relative="1" as="geometry" />
        </mxCell>
        <mxCell id="0TAu2RY84iv-qnMOKPin-33" value="" style="edgeStyle=none;rounded=0;orthogonalLoop=1;jettySize=auto;html=1;" edge="1" parent="0TAu2RY84iv-qnMOKPin-2" source="0TAu2RY84iv-qnMOKPin-28" target="0TAu2RY84iv-qnMOKPin-32">
          <mxGeometry relative="1" as="geometry" />
        </mxCell>
        <mxCell id="0TAu2RY84iv-qnMOKPin-35" value="" style="edgeStyle=none;rounded=0;orthogonalLoop=1;jettySize=auto;html=1;" edge="1" parent="0TAu2RY84iv-qnMOKPin-2" source="0TAu2RY84iv-qnMOKPin-28" target="0TAu2RY84iv-qnMOKPin-34">
          <mxGeometry relative="1" as="geometry" />
        </mxCell>
        <mxCell id="0TAu2RY84iv-qnMOKPin-28" value="main screen" style="ellipse;whiteSpace=wrap;html=1;" vertex="1" parent="0TAu2RY84iv-qnMOKPin-2">
          <mxGeometry x="254" y="140" width="120" height="60" as="geometry" />
        </mxCell>
        <mxCell id="0TAu2RY84iv-qnMOKPin-30" value="Logout" style="ellipse;whiteSpace=wrap;html=1;" vertex="1" parent="0TAu2RY84iv-qnMOKPin-2">
          <mxGeometry x="430" y="40" width="120" height="60" as="geometry" />
        </mxCell>
        <mxCell id="0TAu2RY84iv-qnMOKPin-32" value="Send message" style="ellipse;whiteSpace=wrap;html=1;" vertex="1" parent="0TAu2RY84iv-qnMOKPin-2">
          <mxGeometry x="430" y="140" width="120" height="60" as="geometry" />
        </mxCell>
        <mxCell id="0TAu2RY84iv-qnMOKPin-34" value="Receive Message" style="ellipse;whiteSpace=wrap;html=1;" vertex="1" parent="0TAu2RY84iv-qnMOKPin-2">
          <mxGeometry x="430" y="240" width="120" height="60" as="geometry" />
        </mxCell>
        <mxCell id="0TAu2RY84iv-qnMOKPin-24" value="" style="edgeStyle=none;rounded=0;orthogonalLoop=1;jettySize=auto;html=1;endArrow=none;" edge="1" parent="1" source="0TAu2RY84iv-qnMOKPin-1" target="0TAu2RY84iv-qnMOKPin-5">
          <mxGeometry relative="1" as="geometry">
            <mxPoint x="130" y="436.47058823529414" as="sourcePoint" />
            <mxPoint x="485.7108778679428" y="352.7739110898958" as="targetPoint" />
          </mxGeometry>
        </mxCell>
      </root>
    </mxGraphModel>
  </diagram>
</mxfile>
